<?xml version="1.0" standalone="no"?>
<!DOCTYPE svg PUBLIC "-//W3C//DTD SVG 20010904//EN"
 "http://www.w3.org/TR/2001/REC-SVG-20010904/DTD/svg10.dtd">
<svg version="1.0" xmlns="http://www.w3.org/2000/svg"
 width="739.000000pt" height="1600.000000pt" viewBox="0 0 739.000000 1600.000000"
 preserveAspectRatio="xMidYMid meet">

<g transform="translate(0.000000,1600.000000) scale(0.100000,-0.100000)"
fill="#DCDCDC" fill-width="8" stroke="red"  stroke-width="50" >
<path  d="M0 8000 l0 -8000 3695 0 3695 0 0 8000 0 8000 -3695 0 -3695 0 0
-8000z m656 7775 c32 -32 26 -55 -27 -110 -21 -23 -39 -43 -39 -45 0 -3 20 -4
45 -2 40 4 45 2 45 -17 0 -19 -6 -21 -69 -21 -39 0 -73 5 -76 11 -4 5 19 37
50 70 58 60 65 83 32 103 -15 9 -22 7 -37 -11 -19 -24 -50 -31 -50 -13 0 21
49 60 75 60 14 0 37 -11 51 -25z m163 14 c42 -15 53 -55 21 -81 -12 -10 -17
-18 -11 -18 6 0 18 -11 27 -25 15 -23 15 -27 0 -50 -18 -28 -54 -40 -90 -31
-26 6 -56 31 -56 47 0 14 30 10 47 -7 32 -32 92 6 64 40 -8 9 -24 16 -37 16
-34 0 -31 28 4 32 19 2 28 9 30 25 4 29 -33 41 -57 19 -10 -9 -23 -16 -30 -16
-21 0 -7 34 19 47 31 16 30 16 69 2z m297 -14 c32 -32 26 -55 -29 -112 l-41
-43 47 0 c40 0 47 -3 47 -20 0 -18 -7 -20 -69 -20 -39 0 -73 5 -76 11 -4 5 19
37 50 70 58 60 65 83 32 103 -15 9 -22 7 -37 -11 -19 -24 -50 -31 -50 -13 0
21 49 60 75 60 14 0 37 -11 51 -25z m204 5 c0 -5 -21 -53 -47 -105 -33 -67
-53 -95 -65 -95 -10 0 -18 3 -18 6 0 4 20 45 46 90 l45 84 -55 0 c-43 0 -56 3
-56 15 0 12 15 15 75 15 43 0 75 -4 75 -10z m-370 -40 c0 -13 -7 -20 -20 -20
-13 0 -20 7 -20 20 0 13 7 20 20 20 13 0 20 -7 20 -20z m-3 -96 c8 -21 -13
-42 -28 -27 -13 13 -5 43 11 43 6 0 13 -7 17 -16z m5531 -15 c43 -21 51 -36
31 -56 -9 -9 -19 -6 -40 9 -16 12 -49 23 -78 26 -41 4 -58 0 -94 -22 -41 -23
-46 -24 -58 -10 -12 14 -9 20 16 40 59 47 141 52 223 13z m558 17 c16 -12 19
-27 19 -101 0 -118 6 -115 -213 -115 -100 0 -181 4 -193 10 -17 9 -19 22 -19
105 0 79 3 96 18 104 10 6 92 11 193 11 136 0 180 -3 195 -14z m-601 -80 c38
-16 43 -27 20 -46 -12 -10 -18 -10 -29 -1 -19 16 -66 17 -95 1 -19 -10 -26 -9
-39 3 -13 14 -11 18 19 36 40 25 77 26 124 7z m665 -21 c0 -13 -4 -27 -10 -30
-6 -4 -10 8 -10 30 0 22 4 34 10 30 6 -3 10 -17 10 -30z m-1160 -45 c0 -57 -1
-60 -24 -60 -26 0 -36 16 -36 60 0 44 10 60 36 60 23 0 24 -3 24 -60z m-92
-23 c3 -37 2 -38 -25 -35 -20 2 -29 9 -31 26 -5 36 5 54 30 50 19 -2 24 -10
26 -41z m565 13 c1 -3 -6 -16 -15 -29 -17 -24 -18 -24 -38 -6 -25 22 -26 42
-2 47 17 4 52 -4 55 -12z m-5693 -90 c11 -21 -3 -29 -15 -10 -5 8 -11 7 -21
-1 -19 -16 -30 -4 -14 16 17 21 37 19 50 -5z m-132 -6 c12 -8 22 -22 22 -30 0
-19 -16 -18 -24 1 -7 18 -47 20 -64 3 -15 -15 -16 -53 -2 -79 13 -24 56 -25
69 -2 5 10 13 14 17 10 15 -15 -13 -42 -45 -45 -57 -6 -90 44 -70 105 16 49
58 65 97 37z m-198 -69 c0 -36 -3 -65 -7 -65 -19 0 -123 55 -123 65 0 11 95
63 118 64 8 1 12 -18 12 -64z m342 21 c4 -6 8 -29 8 -51 0 -40 0 -41 -39 -42
-22 -1 -44 4 -50 11 -17 20 -3 45 28 52 14 3 29 6 33 7 4 1 3 8 -2 16 -7 12
-13 13 -34 3 -29 -13 -36 1 -8 17 19 11 53 4 64 -13z m79 15 c15 7 24 7 34 -1
10 -8 19 -8 33 1 32 20 52 -4 52 -62 0 -27 -4 -49 -10 -49 -5 0 -10 20 -10 44
0 25 -5 48 -10 51 -20 12 -40 -17 -40 -56 0 -22 -4 -39 -10 -39 -5 0 -10 20
-10 44 0 28 -5 46 -14 49 -21 8 -36 -14 -36 -55 0 -21 -4 -38 -10 -38 -11 0
-14 103 -3 114 4 4 9 3 11 -3 3 -8 10 -8 23 0z m240 -12 c28 -28 20 -43 -25
-47 -46 -4 -43 -28 3 -26 33 2 42 -10 15 -20 -66 -25 -113 45 -64 94 25 25 45
25 71 -1z m84 11 c8 13 25 13 25 -1 0 -6 -9 -13 -20 -16 -16 -4 -20 -14 -20
-49 0 -33 -4 -44 -15 -44 -12 0 -15 12 -14 53 2 62 6 72 24 57 9 -8 15 -8 20
0z m116 0 c15 -8 19 -21 19 -59 l0 -48 -40 -1 c-28 -1 -42 3 -48 16 -14 26 -4
41 34 48 19 3 34 10 34 15 0 16 -27 21 -49 9 -26 -13 -29 4 -3 19 22 13 29 13
53 1z m5409 -535 c0 -108 -1 -115 -20 -115 -19 0 -20 7 -20 115 0 108 1 115
20 115 19 0 20 -7 20 -115z m-310 95 c50 -27 49 -100 0 -125 -16 -8 -43 -15
-60 -15 -28 0 -30 -2 -28 -32 3 -28 -1 -34 -19 -36 -23 -3 -23 -2 -23 107 l0
111 56 0 c30 0 64 -5 74 -10z m120 -104 c0 -66 11 -83 45 -70 12 5 30 73 25
99 -5 24 1 35 20 35 18 0 20 -7 20 -85 0 -77 -2 -85 -19 -85 -11 0 -21 5 -23
11 -3 8 -10 8 -25 -2 -16 -10 -30 -11 -50 -3 -27 9 -28 12 -31 87 -3 72 -1 77
18 77 18 0 20 -6 20 -64z m354 48 c12 -11 16 -35 16 -85 0 -62 -2 -69 -20 -69
-11 0 -20 5 -20 10 0 7 -6 7 -19 0 -32 -16 -59 -12 -76 14 -27 41 6 76 71 76
19 0 25 5 22 18 -3 14 -13 16 -53 14 l-49 -3 18 20 c23 26 87 28 110 5z m106
4 c0 -9 3 -9 12 0 20 20 48 15 48 -9 0 -11 -4 -17 -10 -14 -5 3 -19 1 -30 -5
-17 -9 -20 -21 -20 -70 0 -53 -2 -60 -20 -60 -18 0 -20 7 -20 85 0 78 2 85 20
85 11 0 20 -5 20 -12z m-3070 -1797 c135 -18 219 -34 325 -60 111 -27 218 -61
230 -72 5 -5 17 -9 27 -9 10 0 26 -4 36 -9 9 -6 62 -32 118 -60 56 -27 128
-66 160 -85 32 -20 63 -36 67 -36 5 0 33 11 63 25 30 14 82 34 117 45 63 20
229 41 276 34 177 -23 226 -36 331 -86 133 -65 284 -198 349 -309 96 -162 131
-280 135 -448 l2 -114 57 -46 c124 -101 228 -263 274 -426 47 -166 45 -295 -5
-497 -5 -20 -28 -75 -51 -122 -22 -46 -41 -100 -41 -118 0 -80 -52 -209 -117
-293 -87 -112 -264 -218 -418 -250 -87 -19 -288 -31 -328 -21 -19 4 -24 11
-20 27 5 16 -9 34 -58 80 -75 70 -101 80 -132 52 -12 -11 -30 -23 -39 -26 -12
-4 -18 -17 -18 -37 0 -18 -4 -29 -10 -25 -5 3 -10 23 -10 44 0 35 -3 39 -38
50 -63 21 -81 13 -124 -58 -21 -35 -37 -74 -36 -85 3 -19 -2 -21 -42 -19 -104
3 -231 16 -236 24 -3 5 3 22 12 39 22 37 13 48 -22 26 -14 -10 -28 -16 -30
-13 -5 4 4 45 26 122 21 72 24 108 9 103 -32 -11 -77 -106 -93 -200 -8 -43
-21 -55 -39 -36 -9 10 -11 165 -7 723 5 668 6 710 23 709 59 -3 65 -5 70 -26
3 -13 15 -59 27 -103 24 -88 36 -134 46 -180 4 -16 12 -36 18 -44 12 -15 29
-78 66 -236 64 -281 189 -703 212 -716 22 -12 74 0 94 22 17 18 16 29 -19 207
-30 155 -37 215 -40 349 -3 122 -1 160 8 157 6 -3 17 -26 23 -52 7 -26 20 -78
30 -117 11 -38 25 -108 31 -155 7 -47 16 -107 21 -135 5 -27 14 -88 20 -135
20 -145 20 -146 66 -142 21 2 43 8 48 13 6 5 20 9 33 9 27 0 26 0 24 145 -1
108 -17 302 -32 401 -5 33 -9 78 -9 100 0 21 -7 58 -15 82 -9 24 -15 69 -14
100 2 31 -1 73 -5 92 -8 33 -15 58 -66 228 -12 39 -26 72 -31 72 -14 0 -11 70
4 75 142 49 144 52 107 127 -11 23 -20 45 -20 49 0 9 -61 114 -82 141 -7 10
-50 29 -95 42 -47 13 -96 35 -114 50 -40 34 -65 20 -30 -18 l22 -23 -23 -28
c-40 -49 -67 -75 -75 -75 -4 0 -30 34 -57 75 -50 77 -64 87 -87 59 -16 -19
-149 -87 -150 -77 0 5 0 80 1 169 1 134 -1 163 -14 174 -14 11 -16 48 -16 256
0 201 -3 249 -16 276 -16 35 -82 88 -108 88 -8 0 -18 5 -21 10 -4 7 -238 10
-669 10 -720 0 -697 2 -765 -56 -55 -46 -61 -75 -67 -318 -3 -122 -5 -259 -4
-306 1 -47 1 -105 1 -130 0 -65 0 -123 5 -980 l4 -776 -42 -18 c-24 -10 -60
-35 -80 -54 l-38 -36 0 95 c0 90 6 138 32 269 10 52 29 128 44 178 4 13 2 22
-5 22 -6 0 -11 -11 -11 -25 0 -14 -4 -25 -10 -25 -5 0 -10 -8 -10 -18 0 -10
-4 -22 -8 -28 -9 -9 -62 -177 -80 -249 -23 -93 -34 -179 -30 -251 l3 -78 -100
-16 c-103 -17 -627 -28 -687 -15 -27 6 -28 9 -28 62 0 101 -42 194 -113 247
-48 36 -143 86 -151 79 -3 -3 -6 -41 -6 -84 0 -81 12 -109 48 -109 35 0 118
-63 165 -126 26 -35 45 -69 42 -74 -11 -18 -129 -11 -196 11 -87 28 -113 43
-161 90 -22 21 -44 39 -49 39 -20 0 -175 128 -218 180 -102 123 -150 230 -175
390 -9 54 -25 107 -44 145 -50 98 -65 140 -88 240 -12 52 -16 269 -5 305 5 19
15 58 22 85 34 134 122 288 227 392 58 58 177 142 232 163 19 7 40 16 45 20 6
3 30 12 55 19 25 7 56 17 70 22 26 8 146 21 213 23 23 1 42 7 47 16 93 166
304 372 515 505 98 61 261 143 340 169 28 10 64 23 80 30 17 8 50 19 75 26 25
7 56 16 70 20 23 8 44 13 160 39 25 5 83 15 130 21 47 6 105 15 130 19 58 11
432 6 530 -8z m-50 -236 c23 -28 0 -35 -110 -35 -82 0 -109 3 -113 14 -11 27
17 36 114 36 72 0 100 -4 109 -15z m90 0 c15 -18 5 -35 -20 -35 -10 0 -22 5
-25 10 -7 11 12 40 25 40 4 0 13 -7 20 -15z m-570 -20 c0 -30 24 -65 55 -80
50 -23 661 -22 711 1 31 15 47 42 49 79 0 6 46 11 112 13 123 3 166 -11 190
-59 18 -37 20 -789 2 -800 -7 -4 -16 -6 -20 -3 -4 2 -10 -2 -12 -8 -4 -8 -6
-7 -6 4 -1 12 -13 18 -48 23 -27 3 -57 8 -68 11 -11 3 -76 9 -144 14 -135 9
-251 1 -356 -25 l-67 -17 -61 30 c-34 16 -80 35 -101 42 -47 15 -300 16 -348
2 -18 -6 -63 -20 -99 -31 -37 -12 -72 -21 -78 -21 -17 0 -15 746 2 779 23 46
62 59 180 60 87 1 107 -2 107 -14z m37 -801 c-3 -3 -12 -4 -19 -1 -8 3 -5 6 6
6 11 1 17 -2 13 -5z m110 0 c-3 -3 -12 -4 -19 -1 -8 3 -5 6 6 6 11 1 17 -2 13
-5z m65 -16 c-11 -11 -32 -3 -32 12 0 4 9 6 21 3 13 -4 17 -9 11 -15z m684
-29 c184 -4 150 -17 -47 -18 -224 -1 -328 11 -164 19 55 3 103 4 106 3 3 -1
50 -3 105 -4z m-951 -8 c122 -2 163 -5 146 -12 -14 -5 -32 -9 -40 -8 -9 1 -72
0 -141 -2 l-125 -2 80 -9 c130 -15 315 -20 315 -10 0 5 30 13 68 16 96 9 103
9 142 -2 176 -53 282 -63 458 -45 70 7 151 18 179 26 29 8 64 14 78 13 l26 -1
0 -649 c0 -575 -2 -651 -16 -658 -10 -6 -15 -5 -15 4 0 7 -10 20 -22 27 -57
36 -208 108 -251 120 -26 8 -50 18 -53 22 -3 5 -20 9 -39 9 -19 0 -36 4 -39 9
-16 25 -380 36 -491 14 -101 -20 -119 -24 -140 -33 -11 -5 -41 -14 -67 -21
-27 -8 -48 -17 -48 -21 0 -4 -9 -8 -19 -8 -42 0 -215 -114 -207 -137 3 -7 2
-13 -3 -13 -5 0 -11 10 -15 23 -6 24 -8 1342 -2 1348 3 2 19 4 38 3 18 -1 110
-2 203 -3z m632 3 c-3 -3 -12 -4 -19 -1 -8 3 -5 6 6 6 11 1 17 -2 13 -5z m543
-1561 c0 -168 -1 -173 -24 -200 -23 -27 -25 -27 -32 -8 -4 11 -18 34 -31 51
-13 17 -23 34 -23 38 0 4 -16 21 -35 39 -19 17 -35 35 -35 39 0 18 28 6 46
-18 49 -67 64 -80 74 -64 8 13 10 12 10 -2 0 -10 -4 -18 -10 -18 -5 0 -10 -6
-10 -14 0 -20 36 -16 38 4 0 8 1 65 1 125 1 139 11 231 22 213 5 -7 9 -90 9
-185z m-1380 160 c-21 -5 -22 -203 -1 -203 10 0 12 -11 9 -44 -3 -26 -1 -50 6
-57 8 -9 8 -10 -2 -4 -12 6 -12 3 -2 -16 12 -22 13 -22 26 -4 8 10 17 16 21
12 3 -4 -1 -15 -10 -25 -10 -10 -17 -24 -17 -30 0 -18 -11 -15 -37 10 -22 21
-23 26 -23 199 l0 177 23 -6 c14 -4 17 -7 7 -9z m1345 -1 c-3 -3 -11 0 -18 7
-9 10 -8 11 6 5 10 -3 15 -9 12 -12z m-668 1 c-32 -2 -55 -8 -52 -13 3 -4 -16
-10 -41 -12 -25 -2 -48 0 -50 4 -3 5 8 8 25 8 16 0 33 5 36 10 3 6 36 9 73 8
l67 -2 -58 -3z m176 -24 c4 -15 2 -17 -13 -9 -10 6 -37 10 -59 10 -24 0 -41 5
-41 11 0 6 9 9 20 6 11 -3 20 -2 20 2 0 4 15 5 34 3 23 -3 36 -10 39 -23z
m-430 14 c-7 -2 -19 -2 -25 0 -7 3 -2 5 12 5 14 0 19 -2 13 -5z m74 -18 c-4
-8 -18 -15 -35 -15 -15 0 -32 -4 -37 -9 -20 -19 -48 -17 -51 4 -3 18 3 20 54
22 31 2 59 8 61 14 1 5 5 8 8 5 3 -3 3 -12 0 -21z m438 -4 c-8 -13 -65 -15
-65 -2 0 6 15 11 33 13 38 4 41 3 32 -11z m-928 -68 c-2 -16 -4 -3 -4 27 0 30
2 43 4 28 2 -16 2 -40 0 -55z m363 26 c0 -8 -42 -20 -48 -15 -2 2 5 13 14 25
13 15 20 17 26 8 4 -6 8 -15 8 -18z m648 10 c7 -11 19 -19 26 -19 8 0 17 -8
20 -17 5 -12 9 -14 18 -5 15 15 62 16 53 2 -4 -6 -10 -8 -15 -5 -5 3 -15 -1
-23 -10 -13 -13 -16 -13 -27 0 -7 8 -19 15 -26 15 -8 0 -14 4 -14 8 0 5 -23
15 -50 22 -50 14 -51 28 -1 28 14 0 32 -9 39 -19z m-708 -37 c0 -4 -30 -20
-65 -37 -36 -16 -65 -36 -65 -44 0 -11 -3 -11 -16 0 -14 12 -13 14 11 22 15 5
36 18 46 28 11 11 28 19 40 19 11 0 18 4 15 8 -2 4 4 9 15 9 10 1 19 -1 19 -5z
m847 -37 c13 -4 20 -11 17 -16 -3 -5 5 -9 17 -9 18 0 19 -2 9 -15 -11 -14 -16
-14 -39 1 -14 10 -34 25 -44 34 -17 17 -17 17 0 15 10 -1 28 -6 40 -10z
m-1150 -17 c-3 -8 -6 -5 -6 6 -1 11 2 17 5 13 3 -3 4 -12 1 -19z m134 -69
c-11 -11 -25 -19 -31 -19 -5 0 -10 -8 -10 -17 0 -14 -2 -15 -12 -4 -11 10 -10
14 5 22 9 6 17 17 17 25 0 8 5 12 10 9 6 -3 10 1 10 11 0 14 3 14 15 4 14 -12
13 -15 -4 -31z m-291 -44 c0 -20 8 -54 19 -75 10 -21 16 -41 13 -44 -3 -4 -24
-6 -46 -6 -23 0 -58 -4 -79 -9 -49 -12 -58 5 -26 51 28 41 100 118 111 118 4
0 8 -16 8 -35z m220 -16 c0 -6 -4 -7 -10 -4 -5 3 -10 11 -10 16 0 6 5 7 10 4
6 -3 10 -11 10 -16z m1390 -119 c0 -5 -2 -10 -4 -10 -3 0 -8 5 -11 10 -3 6 -1
10 4 10 6 0 11 -4 11 -10z m708 -30 c15 0 15 -2 2 -10 -19 -12 -77 -13 -85 -1
-3 5 4 12 15 16 11 3 20 11 20 16 0 6 7 3 16 -5 8 -9 23 -16 32 -16z m-1718
-634 c0 -69 4 -136 10 -150 8 -22 7 -26 -9 -26 -10 0 -22 7 -25 16 -5 14 -7
14 -22 0 -16 -16 -69 -21 -99 -10 -22 9 -45 57 -45 94 0 77 68 127 130 97 l30
-15 0 59 c0 46 3 59 15 59 13 0 15 -20 15 -124z m1430 57 c0 -64 1 -66 19 -49
22 20 68 24 98 8 50 -27 50 -142 0 -177 -21 -15 -101 -21 -131 -9 -23 9 -24
294 -1 294 12 0 15 -14 15 -67z m-3037 46 c26 -7 41 -18 47 -35 12 -31 3 -71
-17 -78 -13 -5 -11 -11 11 -31 25 -23 33 -56 20 -90 -11 -28 -60 -45 -131 -45
l-69 0 3 73 c1 39 3 105 3 145 l0 72 48 0 c26 0 64 -5 85 -11z m2528 -15 c26
-23 25 -78 -1 -97 -20 -14 -20 -14 5 -31 19 -13 25 -25 25 -55 0 -58 -25 -75
-121 -80 l-79 -3 0 147 0 148 76 -6 c51 -4 82 -11 95 -23z m1139 -78 c0 -106
-12 -147 -24 -78 -3 20 -6 70 -6 110 0 57 3 72 15 72 12 0 15 -18 15 -104z
m-2570 74 c0 -23 -25 -27 -33 -6 -7 16 1 26 20 26 7 0 13 -9 13 -20z m-837
-82 c9 -11 17 -26 17 -32 0 -24 -48 -58 -89 -63 -47 -6 -53 -25 -17 -48 24
-16 68 -13 93 7 7 6 14 5 18 -2 19 -31 -81 -53 -128 -28 -35 18 -46 40 -46 88
0 50 12 72 55 95 35 18 72 12 97 -17z m224 4 c11 -14 15 -14 32 2 26 23 86 25
108 3 12 -11 18 -39 21 -84 2 -38 9 -74 15 -81 7 -9 7 -16 0 -23 -8 -8 -17 -5
-32 10 -17 17 -21 33 -21 84 0 65 -11 87 -42 87 -39 0 -58 -35 -58 -110 0 -63
-2 -70 -20 -70 -18 0 -20 7 -20 78 0 81 -9 102 -42 102 -39 0 -58 -35 -58
-110 0 -63 -2 -70 -20 -70 -18 0 -20 7 -20 78 0 42 -3 87 -6 100 -5 16 -2 22
10 22 9 0 19 -7 23 -15 5 -14 8 -14 22 -1 32 28 85 28 108 -2z m844 9 c19 -15
24 -30 27 -87 2 -38 9 -74 14 -81 16 -19 0 -35 -23 -23 -16 9 -19 22 -19 74 0
75 -22 113 -58 102 -42 -14 -52 -34 -52 -107 0 -55 -3 -69 -15 -69 -12 0 -15
14 -15 69 0 38 -4 81 -10 95 -11 31 7 47 25 22 11 -14 14 -14 24 -2 11 13 31
20 67 25 7 0 22 -7 35 -18z m509 -17 c20 -20 25 -34 25 -75 0 -43 -4 -54 -28
-75 -30 -26 -92 -33 -128 -14 -23 13 -49 61 -49 93 0 33 40 90 70 98 38 11 82
0 110 -27z m343 19 c4 -2 7 -37 7 -78 0 -41 5 -77 10 -80 15 -9 12 -35 -4 -35
-7 0 -19 7 -26 15 -11 13 -15 13 -33 0 -67 -47 -154 18 -133 99 8 34 53 84 79
89 22 4 86 -2 100 -10z m591 -4 c5 -4 10 -40 10 -79 1 -51 5 -73 16 -80 12 -7
12 -12 3 -21 -10 -10 -16 -9 -30 3 -16 14 -20 15 -37 2 -34 -24 -91 -18 -115
12 -61 77 16 195 114 177 17 -3 34 -9 39 -14z m204 4 c2 -8 -6 -13 -20 -13
-49 0 -62 -22 -64 -102 -1 -59 -4 -74 -18 -76 -14 -3 -16 8 -16 75 0 43 -3 88
-6 101 -5 16 -2 22 9 22 8 0 17 -5 19 -11 2 -6 14 -5 33 5 33 18 56 17 63 -1z
m391 6 c63 -22 50 -90 -22 -110 -23 -6 -48 -13 -54 -15 -23 -6 -14 -24 21 -40
31 -15 37 -15 65 -1 21 10 33 12 37 5 12 -18 -27 -38 -74 -38 -90 0 -135 99
-77 169 14 16 36 32 48 34 12 2 22 5 23 6 1 0 15 -4 33 -10z m209 -6 c2 -8 -5
-13 -15 -13 -10 0 -29 -7 -41 -16 -19 -13 -22 -24 -22 -90 0 -59 -3 -74 -15
-74 -12 0 -15 14 -15 69 0 38 -4 81 -10 95 -11 29 3 44 25 26 11 -9 19 -8 37
4 26 18 49 17 56 -1z m-2683 -73 c17 -43 33 -76 36 -72 4 4 19 40 34 80 20 54
31 72 45 72 17 0 16 -8 -17 -82 -19 -46 -38 -91 -40 -101 -4 -11 -13 -17 -25
-15 -14 2 -30 29 -59 97 -21 52 -39 96 -39 98 0 1 8 3 18 3 13 0 26 -21 47
-80z m205 -5 c0 -85 2 -90 38 -86 6 1 12 -5 12 -14 0 -18 -50 -21 -68 -3 -8 8
-12 45 -12 100 0 72 3 88 15 88 12 0 15 -16 15 -85z m-290 -5 c0 -5 -25 -10
-55 -10 -30 0 -55 5 -55 10 0 6 25 10 55 10 30 0 55 -4 55 -10z m2868 -87 c5
-17 -26 -29 -40 -15 -6 6 -7 15 -3 22 9 14 37 9 43 -7z m-4822 -587 c17 -13
15 -14 -31 -13 -47 2 -50 0 -53 -24 -3 -23 3 -28 43 -43 56 -22 73 -48 51 -81
-9 -13 -25 -26 -36 -30 -24 -8 -90 12 -90 27 0 6 7 7 18 2 9 -4 33 -8 52 -8
32 -1 35 1 35 28 0 26 -5 31 -43 44 -45 15 -67 41 -57 71 11 36 76 52 111 27z
m934 -27 c0 -35 3 -40 18 -34 40 17 51 16 71 -6 28 -31 27 -74 -4 -104 -25
-25 -42 -29 -82 -19 -22 6 -23 11 -23 105 0 59 4 99 10 99 6 0 10 -18 10 -41z
m948 34 c-12 -3 -18 -14 -18 -34 0 -17 4 -28 9 -24 5 3 12 1 16 -5 3 -5 -1
-10 -9 -10 -9 0 -16 -6 -16 -12 -4 -141 -9 -168 -35 -168 -12 0 -11 4 1 28 18
34 16 142 -3 149 -16 6 -17 24 -1 21 6 -2 13 6 15 17 8 39 13 45 35 44 17 -1
18 -2 6 -6z m4062 -68 c0 -43 -4 -75 -10 -75 -11 0 -14 133 -3 143 12 13 13 7
13 -68z m-5369 55 c22 -13 25 -43 5 -63 -12 -12 -12 -16 5 -30 40 -35 11 -84
-51 -87 -74 -4 -70 -10 -70 95 l0 95 46 0 c25 0 54 -5 65 -10z m949 0 c0 -5
-4 -10 -10 -10 -5 0 -10 5 -10 10 0 6 5 10 10 10 6 0 10 -4 10 -10z m1015 0
c3 -5 -1 -10 -9 -10 -9 0 -16 5 -16 10 0 6 4 10 9 10 6 0 13 -4 16 -10z m1615
0 c0 -5 -4 -10 -10 -10 -5 0 -10 5 -10 10 0 6 5 10 10 10 6 0 10 -4 10 -10z
m1320 0 c0 -5 -4 -10 -10 -10 -5 0 -10 5 -10 10 0 6 5 10 10 10 6 0 10 -4 10
-10z m250 0 c0 -5 -4 -10 -10 -10 -5 0 -10 5 -10 10 0 6 5 10 10 10 6 0 10 -4
10 -10z m-3077 -42 c9 2 17 -2 17 -8 0 -5 -9 -10 -21 -10 -18 0 -20 -5 -17
-52 3 -46 6 -53 28 -58 15 -4 20 -9 13 -13 -6 -4 -23 -3 -37 3 -24 9 -26 15
-26 65 0 46 -3 55 -17 55 -16 1 -16 2 -2 13 8 7 19 21 23 32 8 19 9 19 16 -5
4 -16 12 -24 23 -22z m-2322 -9 c15 -8 19 -19 18 -47 -1 -20 1 -48 5 -60 7
-21 5 -23 -13 -17 -11 3 -30 1 -42 -5 -29 -16 -66 1 -75 34 -17 68 49 127 107
95z m413 5 c12 -5 16 -20 16 -58 0 -29 5 -57 12 -64 9 -9 5 -11 -18 -11 -16 1
-39 -2 -51 -6 -33 -11 -76 35 -67 72 11 52 64 84 108 67z m151 -4 c3 -5 -2
-10 -12 -10 -31 0 -43 -21 -43 -71 0 -26 -4 -51 -10 -54 -6 -4 -10 15 -10 49
0 30 -3 62 -7 71 -5 14 -2 16 15 11 11 -4 23 -2 27 4 8 13 32 13 40 0z m289
-6 c9 -8 16 -19 16 -24 0 -16 -30 -38 -60 -45 -16 -4 -30 -10 -30 -14 0 -14
24 -31 45 -31 12 0 26 5 33 12 9 9 12 9 12 0 0 -13 -32 -32 -55 -32 -25 0 -65
46 -65 75 0 31 41 75 69 75 11 0 27 -7 35 -16z m150 10 c12 -5 16 -20 16 -58
0 -29 6 -58 13 -65 10 -11 8 -13 -12 -8 -12 3 -34 1 -47 -5 -64 -29 -105 76
-48 121 27 21 50 26 78 15z m156 -4 c0 -5 -8 -10 -18 -10 -30 0 -42 -21 -42
-71 0 -26 -4 -51 -10 -54 -6 -4 -10 15 -10 49 0 30 -3 62 -7 71 -5 14 -2 16
15 11 11 -4 23 -2 27 4 8 13 45 13 45 0z m65 -121 c16 -7 14 -8 -10 -6 -29 2
-30 4 -33 56 -5 80 11 100 18 22 4 -52 9 -66 25 -72z m139 125 c12 -5 16 -20
16 -58 0 -29 6 -58 13 -65 10 -11 8 -13 -12 -8 -12 3 -34 1 -47 -5 -36 -17
-74 12 -74 58 0 58 53 98 104 78z m338 -6 c10 -8 18 -34 20 -71 4 -52 3 -57
-13 -52 -10 4 -28 1 -40 -5 -29 -16 -66 1 -75 35 -16 66 59 131 108 93z m92
-59 l19 -52 29 63 c15 35 31 60 34 57 10 -10 -47 -137 -61 -137 -12 0 -65 109
-65 132 0 24 27 -13 44 -63z m220 50 c36 -28 36 -80 0 -108 -15 -12 -35 -21
-46 -21 -27 0 -68 45 -68 75 0 30 41 75 68 75 11 0 31 -9 46 -21z m146 11 c0
-5 -9 -10 -20 -10 -25 0 -40 -35 -40 -93 0 -64 -18 -31 -22 41 -3 60 -2 63 19
57 12 -3 25 -1 28 5 8 13 35 13 35 0z m75 -121 c18 -7 17 -8 -6 -8 -32 -1 -39
14 -39 78 0 72 14 72 20 0 4 -50 9 -64 25 -70z m255 121 c14 -7 18 -19 15 -47
-1 -21 2 -46 7 -56 11 -22 2 -35 -14 -19 -8 8 -17 7 -34 -4 -46 -31 -91 10
-80 72 10 52 61 78 106 54z m224 4 c25 -10 18 -25 -8 -18 -39 9 -66 -11 -66
-51 0 -42 26 -59 73 -50 39 8 26 -10 -13 -20 -39 -9 -80 27 -80 70 0 50 50 86
94 69z m147 -5 c49 -26 42 -107 -12 -129 -38 -16 -75 -1 -89 36 -26 67 39 127
101 93z m174 -3 c16 -12 22 -12 42 2 19 12 29 12 48 4 22 -10 25 -18 25 -60 0
-26 5 -53 12 -60 16 -16 2 -28 -16 -13 -9 8 -16 34 -18 64 -3 44 -6 52 -25 55
-30 4 -53 -33 -53 -87 0 -59 -13 -44 -15 17 -2 56 -9 72 -34 72 -29 0 -41 -22
-41 -71 0 -26 -4 -51 -10 -54 -6 -4 -10 15 -10 49 0 30 -3 62 -7 71 -5 14 -2
16 13 11 10 -3 26 -1 34 4 21 13 33 12 55 -4z m309 8 c27 -10 18 -21 -14 -16
-42 6 -40 -20 5 -47 38 -22 44 -41 19 -65 -16 -17 -33 -20 -58 -10 -27 10 -18
22 17 20 41 -1 43 21 2 44 -60 33 -34 98 29 74z m150 -13 c23 -26 11 -49 -35
-62 -21 -7 -39 -15 -39 -19 0 -19 32 -32 63 -26 30 5 31 5 13 -9 -11 -8 -28
-15 -38 -15 -27 0 -68 45 -68 75 0 30 41 75 68 75 10 0 26 -8 36 -19z m136 9
c0 -5 -9 -10 -20 -10 -25 0 -40 -35 -40 -93 0 -64 -18 -31 -22 41 -3 60 -2 63
19 57 12 -3 25 -1 28 5 8 13 35 13 35 0z m122 -65 c-17 -43 -31 -65 -40 -63
-8 2 -25 30 -38 62 -27 68 -27 66 -15 66 5 0 17 -21 27 -47 9 -27 20 -51 23
-55 4 -4 17 20 30 52 12 33 26 58 31 55 4 -3 -3 -34 -18 -70z m232 69 c28 -11
17 -21 -21 -20 -31 1 -39 -3 -51 -27 -12 -24 -11 -31 3 -54 15 -22 22 -24 56
-19 45 7 51 0 12 -15 -21 -8 -24 -12 -14 -19 21 -12 5 -40 -21 -39 -17 1 -18
2 -5 6 28 7 16 37 -24 57 -79 39 -17 162 65 130z m139 -5 c30 -16 37 -28 37
-66 0 -41 -42 -77 -80 -68 -58 14 -78 78 -35 120 27 28 45 31 78 14z m141 5
c26 -10 18 -21 -13 -16 -43 6 -47 -15 -7 -38 19 -12 37 -27 40 -35 13 -35 -23
-63 -64 -50 -30 10 -24 20 12 20 42 0 46 20 9 40 -42 21 -56 49 -35 69 16 17
33 20 58 10z m227 -10 c9 -8 15 -23 12 -33 -5 -19 -42 -41 -68 -41 -8 0 -15
-4 -15 -8 0 -15 24 -32 45 -32 12 0 26 5 33 12 9 9 12 9 12 0 0 -13 -32 -32
-55 -32 -9 0 -27 11 -40 25 -34 33 -33 77 1 104 32 25 51 26 75 5z m113 10
c27 -10 18 -21 -14 -16 -42 6 -40 -20 5 -47 38 -22 44 -41 19 -65 -17 -18 -20
-18 -51 -10 -34 9 -28 22 10 20 41 -1 43 21 2 44 -36 20 -44 49 -19 67 20 15
26 16 48 7z m176 -14 c21 -21 26 -69 10 -100 -12 -23 -55 -34 -80 -20 -18 10
-20 7 -20 -24 0 -19 -4 -37 -9 -41 -6 -3 -11 35 -13 92 -3 94 0 122 9 96 4
-10 10 -9 26 2 29 20 53 19 77 -5z m151 10 c22 -12 25 -43 7 -58 -7 -5 -28
-13 -45 -17 -36 -7 -41 -16 -18 -35 9 -8 28 -10 50 -6 41 8 46 0 9 -15 -50
-19 -94 12 -94 67 0 57 45 88 91 64z m147 4 c33 -9 27 -24 -8 -17 -56 11 -93
-53 -53 -92 12 -12 27 -15 52 -11 33 5 35 4 17 -9 -27 -20 -49 -19 -80 6 -34
27 -35 71 -1 104 25 26 35 29 73 19z m248 -7 c1 -1 4 -30 6 -65 3 -49 1 -62
-9 -58 -7 3 -24 0 -38 -6 -59 -27 -105 41 -69 101 10 17 25 32 33 35 15 4 72
-1 77 -7z m74 -57 c0 -47 3 -60 18 -64 10 -3 6 -4 -8 -3 -24 2 -25 5 -28 70
-2 46 1 67 8 62 5 -3 10 -33 10 -65z m124 64 c27 -10 18 -21 -14 -16 -25 4
-30 1 -30 -17 0 -11 6 -21 14 -21 27 0 59 -35 52 -57 -8 -26 -30 -35 -62 -27
-34 9 -30 19 8 19 44 0 46 21 4 46 -62 36 -38 98 28 73z m-5772 -21 c0 -10 1
-26 0 -35 -3 -31 17 -68 36 -68 30 0 42 21 42 72 0 26 5 48 10 48 6 0 10 -24
10 -54 0 -30 5 -58 10 -61 20 -12 10 -26 -10 -15 -14 8 -26 8 -40 0 -27 -15
-59 -4 -69 23 -12 34 -13 107 -1 107 5 0 11 -8 12 -17z m4078 -43 c0 -48 3
-60 16 -60 8 0 12 -5 9 -10 -4 -7 -13 -7 -26 0 -15 9 -19 22 -19 70 0 33 4 60
10 60 6 0 10 -27 10 -60z m1320 1 c0 -48 3 -61 18 -65 10 -3 6 -4 -8 -3 -23 2
-25 6 -28 65 -2 38 1 62 8 62 6 0 10 -25 10 -59z m470 -61 c0 -5 -4 -10 -10
-10 -5 0 -10 5 -10 10 0 6 5 10 10 10 6 0 10 -4 10 -10z m-2846 -1621 c49 -39
24 -119 -37 -119 -39 1 -64 18 -72 52 -8 32 9 66 38 78 33 13 42 12 71 -11z
m238 -12 c24 -30 22 -56 -4 -84 -44 -47 -118 -20 -118 43 0 67 80 94 122 41z
m-460 6 c24 -22 23 -74 -2 -96 -17 -14 -43 -17 -169 -17 -135 0 -151 2 -175
21 -32 25 -33 55 -4 86 21 22 27 23 176 23 131 0 158 -3 174 -17z m213 -841
c66 -10 187 -49 262 -84 180 -83 357 -258 446 -442 47 -99 64 -151 97 -306 18
-87 5 -262 -28 -380 -24 -84 -34 -109 -72 -185 -87 -174 -244 -333 -412 -418
-155 -77 -229 -99 -391 -114 -53 -4 -58 -3 -55 14 3 15 16 19 75 24 253 23
455 127 627 325 155 177 233 397 223 633 -7 173 -27 253 -97 393 -96 192 -240
334 -430 425 -109 51 -267 93 -353 93 -37 0 -53 12 -41 31 6 11 28 10 149 -9z
m25 -152 c19 -6 51 -15 70 -21 33 -10 49 -16 110 -43 57 -24 169 -108 226
-167 89 -94 139 -174 195 -314 25 -63 41 -210 35 -315 -13 -238 -111 -428
-301 -585 -78 -65 -131 -96 -232 -136 -99 -39 -276 -59 -388 -42 -118 17 -155
25 -161 34 -3 5 -12 9 -20 9 -24 0 -157 67 -200 100 -105 83 -220 219 -261
310 -34 76 -43 100 -53 140 -39 150 -34 369 10 485 8 21 25 62 44 105 44 102
180 254 291 326 58 38 72 45 145 77 47 20 145 46 195 51 66 7 257 -2 295 -14z
m-3626 -5269 c14 -36 26 -70 26 -78 0 -34 20 -7 41 55 27 82 38 104 48 97 14
-8 -62 -196 -77 -193 -14 3 -82 159 -82 187 0 26 17 0 44 -68z m439 70 c48
-18 61 -128 21 -172 -21 -23 -67 -25 -88 -4 -37 38 -27 152 16 173 13 6 24 11
25 11 1 1 13 -3 26 -8z m-224 -96 c1 -81 -1 -95 -14 -95 -14 0 -16 12 -13 85
l3 84 -25 -5 c-24 -5 -24 -5 -6 10 11 9 27 16 37 16 14 0 17 -13 18 -95z m492
79 c18 -22 23 -114 7 -144 -19 -36 -80 -40 -102 -8 -21 29 -21 116 0 146 18
26 75 30 95 6z m-401 -164 c0 -5 -4 -10 -10 -10 -5 0 -10 5 -10 10 0 6 5 10
10 10 6 0 10 -4 10 -10z m240 0 c0 -5 -4 -10 -10 -10 -5 0 -10 5 -10 10 0 6 5
10 10 10 6 0 10 -4 10 -10z m4183 -329 c34 -13 44 -47 21 -72 -17 -19 -46 -19
-1305 -19 -1157 0 -1289 2 -1303 16 -22 22 -20 50 6 68 20 14 159 16 1290 16
769 0 1276 -4 1291 -9z"/>
<path d="M6718 15608 c-22 -22 -22 -23 -3 -27 10 -2 21 2 23 8 7 20 42 13 42
-9 0 -13 -7 -20 -20 -20 -28 0 -25 -19 5 -30 14 -5 25 -14 25 -20 0 -18 -30
-23 -56 -10 -33 18 -44 3 -15 -21 50 -41 129 -2 101 51 -5 10 -7 32 -4 49 6
27 3 32 -20 41 -40 15 -53 13 -78 -12z"/>
<path d="M6857 15612 c-37 -41 -10 -98 41 -90 33 5 39 -1 21 -19 -8 -8 -19 -8
-39 0 -16 6 -32 8 -36 4 -13 -13 29 -47 58 -47 43 0 68 32 68 85 0 32 -6 51
-20 65 -25 25 -72 26 -93 2z m67 -28 c8 -20 -1 -34 -20 -34 -20 0 -30 30 -13
41 20 12 26 11 33 -7z"/>
<path d="M670 15285 c0 -8 9 -15 19 -15 10 0 21 7 25 15 4 11 -1 15 -19 15
-16 0 -25 -6 -25 -15z"/>
<path d="M997 15344 c-14 -14 -6 -24 19 -24 16 0 24 5 22 13 -5 14 -31 21 -41
11z"/>
<path d="M1200 15284 c0 -10 7 -14 22 -12 32 5 35 28 4 28 -17 0 -26 -5 -26
-16z"/>
<path d="M6268 14893 c-2 -5 -4 -24 -4 -43 1 -31 4 -35 26 -32 14 1 31 4 38 7
15 6 16 47 0 63 -13 13 -55 16 -60 5z"/>
<path d="M6753 14783 c-20 -8 -16 -43 5 -43 21 0 42 18 42 37 0 13 -24 16 -47
6z"/>
<path d="M4773 12354 c-17 -9 -47 -32 -67 -52 -19 -21 -42 -43 -51 -51 -12 -9
-14 -16 -6 -24 6 -6 11 -18 11 -26 0 -9 4 -23 10 -31 7 -12 13 -9 30 13 32 40
75 60 100 47 14 -8 32 -8 61 0 35 10 44 9 60 -6 10 -9 19 -25 19 -35 0 -24 20
-35 31 -18 14 23 10 85 -6 99 -8 7 -15 19 -15 28 0 21 -30 41 -62 42 -15 0
-33 7 -42 15 -18 19 -33 19 -73 -1z"/>
<path d="M5618 10813 c7 -3 16 -2 19 1 4 3 -2 6 -13 5 -11 0 -14 -3 -6 -6z"/>
<path d="M5679 10762 c5 -34 6 -35 9 -8 2 16 0 32 -5 37 -5 5 -7 -7 -4 -29z"/>
<path d="M5561 10754 c0 -11 3 -14 6 -6 3 7 2 16 -1 19 -3 4 -6 -2 -5 -13z"/>
<path d="M3383 9474 c-21 -21 -24 -32 -19 -62 7 -44 40 -75 70 -66 56 16 78
107 34 138 -32 23 -55 20 -85 -10z"/>
<path d="M4976 9479 c-22 -18 -26 -28 -26 -74 0 -52 1 -54 31 -60 49 -11 83
20 87 78 3 38 -1 48 -20 61 -29 21 -40 20 -72 -5z"/>
<path d="M1810 9530 l0 -50 39 0 c52 0 86 28 78 62 -7 27 -30 38 -84 38 -33 0
-33 0 -33 -50z"/>
<path d="M1814 9451 c-2 -2 -4 -26 -4 -53 l0 -48 46 0 c60 0 84 14 84 49 0 16
-6 33 -12 39 -13 10 -106 21 -114 13z"/>
<path d="M4306 9569 c-3 -8 -4 -30 -3 -49 2 -31 5 -35 33 -38 64 -6 108 34 80
74 -16 22 -104 32 -110 13z"/>
<path d="M4305 9451 c-3 -2 -5 -26 -5 -53 l0 -48 53 0 c72 0 106 35 78 79 -9
14 -116 33 -126 22z"/>
<path d="M2075 9475 c-14 -13 -25 -32 -25 -41 0 -14 7 -16 36 -11 49 8 77 33
63 58 -14 26 -45 24 -74 -6z"/>
<path d="M3630 9480 c-20 -20 -28 -83 -12 -106 13 -21 52 -34 77 -28 72 18 55
154 -20 154 -14 0 -34 -9 -45 -20z"/>
<path d="M3975 9476 c-35 -35 -35 -99 -1 -122 21 -13 29 -14 52 -2 32 15 44
49 35 104 -5 33 -10 39 -33 42 -19 2 -36 -5 -53 -22z"/>
<path d="M4575 9478 c-53 -46 -22 -150 39 -132 36 10 47 35 44 94 -3 51 -5 55
-29 58 -17 2 -37 -6 -54 -20z"/>
<path d="M5205 9475 c-47 -46 -25 -68 43 -44 35 12 48 35 31 55 -17 21 -47 17
-74 -11z"/>
<path d="M1718 8679 c-13 -7 -18 -23 -18 -54 0 -43 1 -45 30 -45 40 0 67 40
54 78 -10 29 -38 38 -66 21z"/>
<path d="M1250 8715 c0 -33 2 -35 34 -35 56 0 74 50 23 64 -48 13 -57 8 -57
-29z"/>
<path d="M1250 8619 l0 -42 41 6 c37 5 58 19 59 39 0 18 -35 38 -66 38 -33 0
-34 -1 -34 -41z"/>
<path d="M1014 8665 c-13 -20 -15 -33 -8 -53 20 -58 88 -25 82 40 -2 27 -7 34
-30 36 -20 2 -31 -4 -44 -23z"/>
<path d="M1432 8678 c-11 -14 -15 -32 -13 -65 1 -15 9 -25 26 -29 37 -9 55 11
55 62 0 42 -1 44 -29 44 -16 0 -33 -6 -39 -12z"/>
<path d="M1876 8675 c-17 -17 -22 -45 -7 -45 28 0 72 24 69 39 -4 22 -42 26
-62 6z"/>
<path d="M2033 8682 c-16 -10 -30 -53 -25 -74 5 -23 48 -34 67 -18 9 8 15 30
15 56 0 39 -3 44 -22 44 -13 0 -28 -4 -35 -8z"/>
<path d="M2386 8671 c-35 -39 0 -111 42 -85 11 7 18 27 20 58 3 43 1 46 -21
46 -13 0 -32 -9 -41 -19z"/>
<path d="M2714 8664 c-13 -19 -15 -32 -8 -52 20 -58 84 -28 84 40 0 36 -2 38
-30 38 -21 0 -35 -8 -46 -26z"/>
<path d="M3026 8674 c-37 -37 -1 -103 48 -90 51 13 43 106 -8 106 -14 0 -32
-7 -40 -16z"/>
<path d="M3507 8672 c-20 -22 -22 -63 -5 -80 32 -32 77 6 73 63 -1 24 -7 31
-26 33 -15 2 -32 -5 -42 -16z"/>
<path d="M3880 8675 c-29 -35 -7 -95 34 -95 31 0 46 19 46 55 0 17 -5 36 -12
43 -17 17 -53 15 -68 -3z"/>
<path d="M4516 8674 c-27 -26 -20 -47 12 -39 33 8 57 29 48 44 -10 16 -42 13
-60 -5z"/>
<path d="M5153 8682 c-22 -14 -27 -67 -8 -85 47 -47 107 13 75 74 -11 19 -45
25 -67 11z"/>
<path d="M5516 8674 c-27 -26 -20 -47 12 -39 33 8 57 29 48 44 -10 16 -42 13
-60 -5z"/>
<path d="M5796 8674 c-19 -18 -21 -65 -4 -82 7 -7 21 -12 33 -12 30 0 45 19
45 55 0 51 -41 73 -74 39z"/>
<path d="M5962 8678 c-11 -11 -17 -48 -8 -48 25 0 66 26 66 41 0 22 -38 27
-58 7z"/>
<path d="M6324 8664 c-34 -51 18 -110 60 -69 9 10 16 33 16 56 0 37 -2 39 -30
39 -21 0 -35 -8 -46 -26z"/>
<path d="M3697 5363 c-10 -17 14 -51 76 -110 36 -35 60 -64 54 -64 -7 -1 -86
-1 -176 0 -135 1 -168 -1 -188 -15 -24 -15 -24 -16 -7 -35 16 -17 32 -19 202
-19 l185 0 -71 -67 c-75 -72 -92 -106 -56 -111 15 -2 48 25 122 100 56 56 102
107 102 113 0 6 -46 56 -103 113 -93 92 -128 116 -140 95z"/>
<path d="M639 728 c-17 -31 -16 -112 1 -133 22 -26 53 -14 68 27 29 76 -34
172 -69 106z"/>
<path  d="M880 731 c-14 -28 -13 -114 3 -135 17 -24 48 -17 65 14 15 29 10 103
-8 125 -17 21 -47 19 -60 -4z"/>
</g>
</svg>
